<?xml version="1.0" standalone="no"?>
<!DOCTYPE svg PUBLIC "-//W3C//DTD SVG 20010904//EN"
 "http://www.w3.org/TR/2001/REC-SVG-20010904/DTD/svg10.dtd">
<svg version="1.0" xmlns="http://www.w3.org/2000/svg"
 width="1600.000000pt" height="1600.000000pt" viewBox="0 0 1600.000000 1600.000000"
 preserveAspectRatio="xMidYMid meet">

<g transform="translate(0.000000,1600.000000) scale(0.100000,-0.100000)"
fill="#000000" stroke="none">
<path d="M7785 15060 c-511 -111 -889 -495 -1001 -1020 -27 -128 -25 -381 5
-519 26 -125 51 -199 101 -308 82 -177 220 -350 371 -465 38 -29 69 -55 69
-58 0 -3 -42 -18 -92 -34 -347 -105 -771 -335 -1088 -588 -360 -288 -682 -654
-945 -1070 -37 -60 -70 -108 -74 -108 -3 0 -51 16 -106 36 -390 141 -844 250
-1365 328 -268 40 -1325 168 -1351 164 -10 -2 124 -99 314 -228 427 -290 550
-382 672 -503 88 -87 96 -98 70 -93 -71 13 -517 18 -670 7 -125 -9 -613 -75
-622 -85 -1 -1 62 -67 140 -146 495 -503 724 -747 974 -1037 756 -875 1261
-1749 1604 -2775 156 -467 278 -976 369 -1533 47 -288 99 -700 103 -809 l2
-78 -117 -54 c-783 -360 -1246 -886 -1389 -1580 -30 -149 -37 -467 -14 -669 9
-84 21 -158 25 -165 6 -10 671 -10 3371 -1 1850 6 3734 14 4187 17 l822 6 0
75 c0 73 1 75 23 70 12 -3 45 -9 74 -13 l52 -6 8 38 c15 73 9 382 -10 477 -39
194 -128 408 -241 582 -228 348 -663 703 -1158 946 -57 28 -68 37 -68 59 0 14
7 117 15 230 113 1530 479 2817 1121 3936 427 747 1005 1466 1745 2174 118
113 259 249 314 302 l100 97 -260 -5 c-476 -9 -828 -32 -1145 -73 -74 -10
-136 -17 -138 -16 -1 1 49 51 110 111 137 133 255 222 685 514 183 124 326
226 319 228 -11 3 -864 -97 -1106 -129 -610 -81 -1040 -173 -1465 -314 -121
-40 -227 -76 -235 -79 -11 -5 -25 11 -49 56 -307 562 -743 1053 -1211 1365
-130 87 -292 176 -430 238 -106 47 -386 145 -414 145 -26 0 -18 13 22 40 68
46 217 204 279 297 155 232 225 469 224 753 0 159 -19 276 -66 417 -140 419
-465 724 -895 840 -83 22 -119 26 -285 29 -160 3 -204 1 -280 -16z"/>
</g>
</svg>
